<?xml version="1.0" encoding="utf-8"?>
<svg xmlns="http://www.w3.org/2000/svg" viewBox="70 20 220 355" width="220px" height="355px">
  <defs>
    <style>
      .outline { fill:#ffffff; stroke:#444444; stroke-width:6; stroke-linejoin:round; }
      .line    { fill:none; stroke:#444444; stroke-width:5; stroke-linecap:round; stroke-linejoin:round; }
      .thin    { fill:none; stroke:#444444; stroke-width:4; stroke-linecap:round; stroke-linejoin:round; }
      .center  { fill:none; stroke:#444444; stroke-width:5; stroke-linejoin:round; }
    </style>
  </defs>
  <rect class="outline" x="70" y="85" width="220" height="290" rx="6" style="fill-opacity: 0.9; fill: none; stroke: rgb(236, 54, 54);" transform="matrix(1, 0, 0, 1, 0, -5.684341886080802e-14)"/>
  <rect class="outline" x="92" y="60" width="60" height="40" rx="4" style="fill: none; stroke: rgb(236, 54, 54);" transform="matrix(1, 0, 0, 1, 0, -5.684341886080802e-14)"/>
  <rect class="outline" x="208" y="60" width="60" height="40" rx="4" style="fill: none; stroke: rgb(236, 54, 54);" transform="matrix(1, 0, 0, 1, 0, -5.684341886080802e-14)"/>
  <rect class="outline" x="166" y="78" width="28" height="64" rx="4" style="fill: none; stroke: rgb(236, 54, 54);" transform="matrix(1, 0, 0, 1, 0, -5.684341886080802e-14)"/>
  <g transform="matrix(1, 0, 0, 1, 122, 38.00000000000001)">
    <path class="line" d="M0,28 C-18,10 -26,-4 -22,-18" style="stroke: rgb(236, 54, 54);"/>
    <path class="line" d="M0,28 C18,10 26,-4 22,-18" style="stroke: rgb(236, 54, 54);"/>
    <path class="thin" d="M0,28 L0,50" style="stroke: rgb(236, 54, 54);"/>
  </g>
  <g transform="matrix(0.9000000953674316, 0, 0, 0.9000000953674316, 238, 44.00000000000001)">
    <path class="line" d="M0,28 C-18,10 -26,-4 -22,-18" style="stroke: rgb(236, 54, 54);"/>
    <path class="line" d="M0,28 C18,10 26,-4 22,-18" style="stroke: rgb(236, 54, 54);"/>
    <path class="thin" d="M0,28 L0,50" style="stroke: rgb(236, 54, 54);"/>
  </g>
  <circle class="outline" cx="120" cy="145" r="10" style="stroke: rgb(236, 54, 54);" transform="matrix(1, 0, 0, 1, 0, -5.684341886080802e-14)"/>
  <rect class="outline" x="130" y="135" width="100" height="210" rx="4" style="fill: none; stroke: rgb(236, 54, 54);" transform="matrix(1, 0, 0, 1, 0, -5.684341886080802e-14)"/>
  <rect class="center" x="146" y="214" width="68" height="82" rx="4" style="stroke: rgb(236, 54, 54);" transform="matrix(1, 0, 0, 1, 0, -5.684341886080802e-14)"/>
  <g transform="matrix(1, 0, 0, 1, 118, 255.00000000000003)">
    <circle class="outline" cx="0" cy="0" r="18" style="fill: none; stroke: rgb(236, 54, 54);"/>
    <circle class="thin" cx="0" cy="0" r="6" style="stroke: rgb(236, 54, 54);"/>
    <path class="thin" d="M-14,0 L14,0" style="stroke: rgb(236, 54, 54);"/>
    <path class="thin" d="M0,-14 L0,14" style="stroke: rgb(236, 54, 54);"/>
  </g>
  <g transform="matrix(1, 0, 0, 1, 242, 255.00000000000003)">
    <circle class="outline" cx="0" cy="0" r="18" style="fill: none; stroke: rgb(236, 54, 54);"/>
    <circle class="thin" cx="0" cy="0" r="6" style="stroke: rgb(236, 54, 54);"/>
    <path class="thin" d="M-14,0 L14,0" style="stroke: rgb(236, 54, 54);"/>
    <path class="thin" d="M0,-14 L0,14" style="stroke: rgb(236, 54, 54);"/>
  </g>
  <path class="line" d="M70,355 L290,355" style="stroke: rgb(236, 54, 54);" transform="matrix(1, 0, 0, 1, 0, -5.684341886080802e-14)"/>
</svg>